<svg xmlns="http://www.w3.org/2000/svg" width="16.024" height="15.606" viewBox="0 0 16.024 15.606">
  <g id="Group_96" data-name="Group 96" transform="matrix(0.574, 0.819, -0.819, 0.574, 2612.476, -2550.069)">
    <path id="Path_191" data-name="Path 191" d="M1455.333,844.409s-1.175.108-2.209.108a2.525,2.525,0,0,1-2.755-2.464,6.766,6.766,0,0,1,1.3-4c1.343-2.068,3.4-4.743,3.66-4.743s1.989,2.468,3.3,4.743a6.971,6.971,0,0,1,1.236,4,2.26,2.26,0,0,1-2.466,2.356Z" transform="translate(-853.693 2761.673)" fill="none" stroke="#fff" stroke-linecap="round" stroke-width="1"/>
    <line id="Line_7" data-name="Line 7" y2="8.384" transform="translate(601.427 3600.7)" fill="none" stroke="#fff" stroke-linecap="round" stroke-width="1"/>
    <line id="Line_8" data-name="Line 8" x1="2.368" y2="2.086" transform="translate(601.427 3601.743)" fill="none" stroke="#fff" stroke-linecap="round" stroke-width="1"/>
    <line id="Line_9" data-name="Line 9" x2="2.368" y2="2.086" transform="translate(599.059 3601.743)" fill="none" stroke="#fff" stroke-linecap="round" stroke-width="1"/>
  </g>
</svg>
